<svg xmlns="http://www.w3.org/2000/svg" viewBox="0 0 780 220" role="img" aria-labelledby="title desc">
<title>Lazy Dog Computing logo</title><desc>Lazy Dog Computing wordmark with a relaxed shepherd-style dog and technology accent.</desc>
<defs><linearGradient id="g" x1="0" y1="0" x2="1" y2="1"><stop offset="0" stop-color="#1e90ff"/><stop offset="1" stop-color="#ff8c00"/></linearGradient><filter id="s" x="-10%" y="-10%" width="120%" height="120%"><feDropShadow dx="0" dy="8" stdDeviation="7" flood-color="#0f172a" flood-opacity=".18"/></filter></defs>
<rect x="8" y="8" width="764" height="204" rx="34" fill="#fff" filter="url(#s)"/>
<g transform="translate(42 44)">
<ellipse cx="94" cy="94" rx="92" ry="72" fill="#f4f7fb" stroke="#1e90ff" stroke-width="7"/>
<path d="M41 111c17-35 58-53 101-42 29 7 47 27 43 52-3 21-23 34-51 34H58c-20 0-27-19-17-44z" fill="#6b4423"/>
<path d="M63 92c16-27 48-41 83-32 26 7 41 24 38 45-3 17-20 28-42 28H79c-17 0-25-15-16-41z" fill="#c07a32"/>
<path d="M121 55l38-30 8 56z" fill="#2b211a"/><path d="M143 62l30-23 5 43z" fill="#6b4423"/>
<circle cx="152" cy="89" r="5" fill="#111827"/><path d="M174 102c13 0 24 7 29 18-12 6-29 6-43 1" fill="none" stroke="#111827" stroke-width="7" stroke-linecap="round"/>
<path d="M49 123c-18-7-32-3-42 12" fill="none" stroke="#6b4423" stroke-width="12" stroke-linecap="round"/>
<rect x="48" y="137" width="128" height="22" rx="7" fill="#111827" opacity=".85"/><rect x="56" y="143" width="112" height="10" rx="3" fill="#1e90ff" opacity=".9"/>
</g>
<g transform="translate(260 56)"><text x="0" y="58" font-family="Arial, Helvetica, sans-serif" font-size="52" font-weight="800" fill="#0f172a">Lazy Dog</text><text x="0" y="112" font-family="Arial, Helvetica, sans-serif" font-size="52" font-weight="800" fill="#1e90ff">Computing</text><rect x="0" y="130" width="355" height="6" rx="3" fill="url(#g)"/><text x="0" y="163" font-family="Arial, Helvetica, sans-serif" font-size="22" font-weight="700" fill="#334155">Big Business I.T. on a Small Business Budget</text></g>
</svg>